<?xml version="1.0" standalone="no"?>
<!DOCTYPE svg PUBLIC "-//W3C//DTD SVG 20010904//EN"
 "http://www.w3.org/TR/2001/REC-SVG-20010904/DTD/svg10.dtd">
<svg version="1.0" xmlns="http://www.w3.org/2000/svg"
 width="900.000000pt" height="900.000000pt" viewBox="0 0 900.000000 900.000000"
 preserveAspectRatio="xMidYMid meet">

<g transform="translate(0.000000,900.000000) scale(0.100000,-0.100000)"
fill="#000000" stroke="none">
<path d="M4005 8919 c-33 -11 -163 -47 -290 -80 -262 -68 -358 -109 -448 -189
-87 -78 -122 -165 -133 -327 -6 -88 10 -518 23 -602 9 -63 -8 -47 -64 62 -39
77 -64 108 -149 193 -138 136 -144 139 -324 139 -126 0 -154 -4 -209 -23 -96
-35 -240 -109 -290 -149 -65 -54 -195 -207 -225 -266 -23 -47 -76 -121 -199
-280 -20 -27 -37 -56 -37 -66 0 -23 19 -41 43 -41 15 0 18 -5 14 -22 -14 -62
-52 -139 -123 -245 -42 -65 -92 -147 -110 -183 -40 -77 -147 -404 -168 -510
-9 -41 -24 -118 -36 -170 -24 -115 -25 -200 -4 -322 20 -117 14 -194 -28 -364
-26 -105 -32 -150 -32 -239 -1 -105 1 -113 32 -173 18 -35 53 -92 77 -128 34
-50 45 -74 45 -104 0 -59 -35 -141 -97 -227 -84 -117 -108 -174 -108 -258 0
-130 38 -245 95 -286 14 -10 56 -23 93 -28 131 -18 155 -50 243 -316 102 -313
168 -406 479 -680 263 -231 308 -257 440 -259 81 -1 126 19 163 75 21 29 23
43 19 95 -6 84 -42 146 -152 263 -252 269 -249 264 -411 589 l-121 243 22 29
c23 31 35 30 35 -4 0 -11 18 -74 41 -140 32 -95 48 -128 75 -154 42 -40 57
-42 43 -6 -5 15 -8 29 -5 31 9 10 70 -94 112 -190 24 -56 53 -109 63 -118 41
-34 177 -47 249 -24 19 6 22 4 22 -19 0 -27 44 -190 100 -371 59 -190 70 -289
80 -739 8 -339 7 -477 -4 -476 0 0 -26 7 -56 15 -89 24 -144 20 -182 -14 -18
-15 -67 -52 -108 -81 -41 -29 -93 -70 -115 -91 -22 -21 -66 -47 -98 -59 -32
-12 -74 -35 -92 -52 -32 -28 -85 -124 -85 -154 0 -10 -16 -14 -64 -14 -35 0
-82 -6 -104 -14 -22 -8 -62 -17 -89 -21 -101 -13 -114 -17 -147 -45 -18 -16
-80 -55 -137 -87 -142 -80 -287 -198 -336 -275 -29 -46 -57 -72 -118 -113 -44
-30 -107 -77 -140 -106 -33 -28 -82 -66 -110 -84 -27 -18 -60 -43 -71 -56 -23
-26 -84 -169 -84 -198 0 -24 -26 -46 -85 -72 -110 -49 -254 -90 -393 -113 -81
-14 -165 -31 -187 -39 l-40 -14 -3 -61 c-2 -34 1 -62 6 -62 5 0 28 7 51 14 22
8 107 29 188 46 160 34 268 73 436 156 l107 54 0 50 c0 27 6 67 14 87 8 21 17
50 20 65 4 15 23 40 42 55 20 15 75 60 123 99 47 39 118 91 156 116 76 49 119
91 155 151 38 64 204 192 327 252 41 20 91 52 112 71 34 30 45 34 92 34 30 0
83 9 117 20 35 11 76 20 91 20 37 0 68 -24 74 -57 6 -35 50 -142 87 -213 54
-103 155 -235 265 -347 60 -61 173 -177 250 -258 189 -199 247 -237 503 -325
203 -71 453 -103 592 -77 42 8 48 7 92 -27 43 -33 52 -36 114 -36 l68 0 -50
31 c-131 83 -350 267 -468 393 -270 286 -386 426 -512 612 -142 211 -138 199
-137 459 8 1307 6 1341 -86 1635 -37 120 -72 244 -85 303 -11 48 78 -61 199
-245 73 -111 87 -137 159 -297 60 -135 97 -192 177 -272 118 -118 442 -305
684 -394 338 -126 686 -148 975 -64 139 41 158 52 280 159 232 203 246 217
329 338 45 67 88 126 96 132 11 9 14 -61 18 -397 4 -334 8 -418 21 -463 8 -30
23 -102 31 -160 12 -78 26 -128 56 -194 53 -116 92 -249 91 -308 -1 -25 -8
-79 -16 -120 -22 -108 -34 -210 -51 -438 -14 -194 -17 -208 -47 -270 -39 -81
-140 -184 -223 -228 -33 -18 -105 -72 -159 -120 l-99 -87 52 -3 c50 -3 54 -1
104 44 29 26 90 72 137 102 47 30 105 72 130 92 25 21 61 45 80 55 136 69 266
190 368 342 79 118 107 175 138 284 26 90 27 97 21 308 -8 319 -26 378 -157
515 -45 47 -114 107 -152 133 -76 52 -72 65 10 40 26 -8 66 -20 89 -26 24 -6
63 -29 88 -51 45 -39 54 -43 126 -55 68 -11 349 -267 349 -318 0 -14 9 -54 20
-89 23 -71 46 -388 35 -493 -16 -165 -66 -317 -144 -440 -21 -33 -74 -120
-117 -193 l-78 -134 -115 -58 -116 -59 91 0 90 -1 85 51 c92 54 126 80 360
268 85 68 183 143 219 166 36 24 106 80 155 125 50 45 109 98 133 118 l43 35
142 -26 c78 -14 176 -31 217 -37 156 -24 469 -103 600 -152 74 -27 172 -61
218 -74 97 -29 230 -81 389 -153 62 -28 115 -51 118 -51 3 0 5 18 5 40 0 38
-3 42 -52 74 -117 74 -264 134 -431 177 -45 11 -145 40 -222 64 -77 24 -201
58 -275 76 -74 17 -151 35 -170 40 -19 5 -129 25 -244 43 -115 19 -213 39
-218 44 -5 5 -15 39 -23 75 -23 109 -51 135 -211 196 -45 17 -108 50 -140 73
-77 54 -131 78 -176 78 -58 0 -57 -2 -120 262 -7 29 -29 56 -106 125 -172 157
-245 210 -305 223 -37 7 -68 23 -100 50 -27 21 -56 41 -65 44 -67 20 -242 57
-314 68 l-88 12 -7 35 c-18 90 -4 552 23 759 7 59 27 53 53 -16 26 -74 57
-103 114 -109 64 -8 105 9 240 100 175 117 231 176 300 317 31 63 88 158 127
210 74 100 120 186 165 310 49 136 57 191 64 445 l6 240 30 49 c17 26 38 61
49 77 10 17 18 47 18 70 -1 41 -6 54 -77 183 -32 57 -39 82 -43 140 -4 68 -2
74 42 160 62 122 62 142 -13 365 -33 97 -61 187 -64 201 -3 14 -7 90 -8 169
-2 140 -1 145 20 152 36 14 36 36 -3 79 -20 22 -36 43 -36 48 0 4 -9 67 -20
140 -12 86 -32 169 -55 235 -20 56 -66 188 -101 292 l-65 190 -9 190 c-6 116
-16 211 -26 245 -21 71 -106 237 -150 292 -19 24 -74 95 -123 158 -55 72 -167
192 -297 320 -412 404 -430 423 -486 510 -96 148 -154 190 -332 235 -183 46
-655 106 -876 111 -114 3 -144 0 -195 -17z m-668 -345 c-93 -90 -121 -103 -71
-31 29 40 126 117 148 117 6 0 -29 -39 -77 -86z m-527 -580 c29 -30 36 -41 20
-31 -60 36 -134 52 -240 51 -93 -1 -117 -5 -210 -36 -58 -20 -106 -35 -108
-34 -6 7 160 78 199 85 24 5 100 9 169 10 l126 1 44 -46z m-302 -393 c20 -11
48 -31 62 -47 29 -31 38 -32 -104 10 -48 14 -101 26 -117 26 -38 0 -45 16 -12
29 38 14 126 5 171 -18z m3740 -35 c23 -25 61 -84 85 -133 53 -105 71 -160 28
-84 -17 30 -57 91 -90 135 -66 92 -86 126 -73 126 5 0 28 -20 50 -44z m-3823
-75 l40 -19 -88 -1 c-86 -1 -133 11 -122 30 11 17 127 10 170 -10z m2213 -58
c12 -3 22 -13 22 -22 0 -10 6 -26 14 -37 14 -19 15 -18 43 8 l29 28 60 -15
c72 -19 234 -72 252 -83 7 -5 21 -24 31 -42 22 -41 37 -48 46 -21 3 12 10 21
15 21 14 0 180 -98 246 -145 104 -74 236 -223 288 -324 56 -109 59 -124 7 -44
-21 33 -44 64 -50 67 -16 10 61 -198 119 -321 40 -83 53 -126 61 -188 11 -84
6 -174 -12 -207 -11 -20 -11 -20 -32 0 -60 54 -323 152 -518 192 -137 29 -323
25 -366 -6 -46 -33 -73 -98 -73 -175 0 -77 11 -113 36 -123 9 -4 85 -13 168
-22 273 -27 551 -81 637 -125 56 -28 137 -107 164 -160 25 -48 38 -202 26
-307 -6 -52 -14 -99 -17 -104 -3 -5 -16 12 -29 39 -13 26 -47 82 -77 123 -40
56 -61 76 -80 78 -22 3 -34 17 -69 85 -66 129 -93 162 -151 191 -48 24 -61 26
-192 26 -164 0 -196 -11 -270 -90 -48 -51 -53 -67 -35 -118 9 -26 21 -34 82
-56 205 -71 540 -176 562 -176 9 0 27 11 41 25 31 31 37 28 93 -58 30 -46 45
-85 60 -154 33 -148 42 -137 -101 -130 -68 4 -212 18 -321 32 -203 25 -247 23
-247 -10 0 -23 29 -30 215 -54 311 -38 489 -53 517 -42 37 14 44 32 58 138 6
51 15 105 19 120 6 24 9 22 30 -33 66 -168 62 -143 55 -344 -4 -112 -12 -197
-19 -216 l-13 -32 -89 -3 c-77 -4 -98 -9 -164 -40 -122 -59 -193 -134 -268
-285 -44 -88 -74 -180 -91 -276 -28 -158 -105 -467 -126 -510 -43 -85 -140
-134 -290 -144 l-100 -7 -27 89 c-38 125 -50 199 -44 270 5 53 3 64 -14 80
-11 10 -16 21 -11 26 5 5 80 15 168 24 87 8 175 19 194 24 19 6 49 10 65 10
40 0 98 51 88 77 -4 10 -40 81 -80 158 -144 272 -286 435 -378 435 -32 0 -33
1 -38 53 -2 28 -3 55 -1 58 2 4 43 -6 91 -21 48 -15 93 -26 100 -23 7 3 17 22
23 42 9 35 46 97 90 151 11 14 25 50 30 80 21 110 -13 237 -97 362 -70 104
-110 191 -118 254 -3 27 -9 112 -14 189 -9 155 -13 168 -90 273 -33 45 -51 62
-66 60 -39 -6 -30 -50 25 -122 l50 -66 9 -183 c11 -214 20 -246 120 -399 71
-110 98 -167 111 -237 14 -75 3 -136 -37 -190 -18 -25 -44 -63 -58 -83 -29
-44 -44 -46 -116 -17 -65 25 -166 27 -263 4 -100 -23 -240 -24 -265 -1 -37 33
-95 167 -99 228 -6 80 10 111 88 173 101 80 153 168 218 365 45 138 55 212 42
334 -8 75 -18 115 -38 155 -32 65 -75 101 -99 85 -27 -17 -25 -28 10 -75 41
-53 55 -90 63 -172 12 -123 -34 -314 -116 -476 -38 -77 -72 -117 -171 -206
-52 -47 -69 -93 -69 -187 0 -54 6 -77 38 -144 76 -155 112 -179 253 -171 53 3
102 7 110 9 10 2 15 -9 17 -38 l3 -41 -73 -6 c-89 -6 -242 -59 -337 -116 -117
-69 -198 -179 -247 -333 l-18 -58 25 -26 c34 -36 62 -49 154 -68 111 -24 265
-72 294 -92 l23 -17 -26 -24 c-20 -18 -26 -33 -26 -67 0 -23 -7 -67 -16 -97
-36 -122 -95 -199 -188 -246 -61 -31 -71 -26 -147 70 -112 144 -120 173 -128
472 l-6 240 -52 99 c-73 136 -153 245 -250 336 -69 66 -95 83 -160 108 -43 17
-109 38 -148 47 -90 21 -252 101 -341 168 l-69 53 3 59 c2 33 17 125 33 205
17 80 39 190 51 244 11 55 40 152 65 215 40 101 47 130 54 224 4 60 16 142 25
183 13 56 15 79 7 97 -12 26 -12 25 30 187 16 62 28 140 32 222 7 117 9 127
28 130 32 5 44 32 27 63 -12 23 -12 28 0 35 8 6 21 10 28 10 7 0 22 5 33 11
16 8 18 13 9 24 -8 10 -8 19 -1 33 11 21 74 72 90 72 5 0 19 14 31 30 23 33
114 90 143 90 9 0 17 7 17 15 0 20 24 19 55 -1 23 -15 29 -15 77 1 59 19 134
56 163 80 19 16 19 16 -10 10 -16 -3 -62 -22 -100 -41 -39 -19 -74 -34 -78
-34 -4 0 -7 11 -7 25 0 23 16 33 158 102 86 42 198 91 247 110 l90 33 260 -5
c143 -4 270 -9 283 -12z m-1348 -283 c13 -9 13 -11 0 -20 -22 -14 -47 -12 -53
4 -10 26 23 36 53 16z m-744 -51 c62 -11 219 -78 208 -88 -9 -9 -130 -31 -209
-38 -112 -9 -265 26 -265 61 0 20 42 44 102 61 66 17 89 18 164 4z m3088 -15
c20 -8 21 -33 1 -40 -18 -7 -45 12 -45 32 0 15 18 18 44 8z m-2554 -153 c0
-14 -18 -23 -31 -15 -8 4 -7 9 2 15 18 11 29 11 29 0z m-122 -66 c48 -22 73
-48 59 -61 -3 -4 -31 6 -63 20 -31 14 -61 26 -66 26 -6 0 -24 12 -42 27 l-31
26 45 -7 c25 -4 69 -18 98 -31z m30 -141 c18 -12 22 -25 22 -65 0 -27 -5 -49
-11 -49 -11 0 -33 48 -44 98 -7 36 0 39 33 16z m2 -209 c20 -24 -2 -41 -24
-20 -9 9 -16 21 -16 26 0 14 26 10 40 -6z m-42 -91 c24 -7 30 -41 12 -74 -8
-15 -18 -18 -43 -14 -59 10 -59 11 -41 46 24 47 33 52 72 42z m3012 -80 c0
-12 -49 -26 -62 -17 -10 6 -10 77 -1 87 9 9 63 -52 63 -70z m-3030 -83 c0 -5
-7 -14 -15 -21 -12 -10 -15 -10 -15 2 0 8 3 18 7 21 9 10 23 9 23 -2z m3106
-250 c13 -29 24 -57 24 -60 0 -4 -16 -7 -36 -7 -28 0 -42 -7 -58 -27 -12 -15
-32 -27 -44 -27 -22 0 -22 2 -22 134 0 73 3 148 6 165 l7 32 50 -78 c27 -43
60 -102 73 -132z m20 157 c8 -16 13 -28 10 -28 -6 0 -46 66 -46 76 0 10 14 -8
36 -48z m-16 -324 c0 -2 -9 0 -20 6 -11 6 -20 13 -20 16 0 2 9 0 20 -6 11 -6
20 -13 20 -16z m-46 -80 c79 -79 104 -137 116 -263 5 -58 8 -106 6 -108 -1 -2
-17 19 -34 47 -31 50 -82 90 -114 90 -27 0 -35 27 -47 154 -14 161 -10 165 73
80z m-706 -29 c39 -12 56 -23 67 -45 19 -37 19 -74 -1 -94 -31 -31 -165 -12
-186 27 -14 27 -3 99 18 114 23 17 39 16 102 -2z m-198 -42 c0 -69 -8 -77 -59
-63 -22 6 -41 16 -41 22 0 12 79 88 92 88 4 0 8 -21 8 -47z m426 -115 c58
-116 58 -120 -8 -103 -58 14 -108 32 -108 39 0 3 10 22 22 42 16 27 22 54 22
92 0 65 6 59 72 -70z m501 -171 c21 -41 52 -189 52 -247 l0 -45 -40 80 c-21
43 -39 86 -39 93 0 8 -9 46 -20 84 -12 37 -18 73 -15 78 10 16 43 -7 62 -43z
m190 -234 c-2 -16 -4 -3 -4 27 0 30 2 43 4 28 2 -16 2 -40 0 -55z m-3761 -471
c-8 -16 -80 -99 -160 -184 -107 -114 -167 -169 -226 -208 -44 -29 -83 -50 -86
-47 -4 3 2 27 12 54 23 64 165 205 252 251 34 18 62 37 62 41 0 10 141 121
153 121 4 0 1 -13 -7 -28z m109 -23 c-14 -38 -14 -43 2 -55 13 -9 22 -9 31 -2
7 6 14 9 15 7 2 -2 16 -77 31 -167 l28 -162 -23 -19 c-22 -18 -22 -18 -5 -62
10 -24 36 -100 59 -169 40 -124 40 -126 40 -276 0 -180 -7 -224 -32 -224 -10
0 -43 -9 -74 -19 -39 -14 -65 -17 -89 -12 -77 18 -90 31 -148 146 -65 131
-103 187 -161 240 l-43 38 52 -6 c28 -3 70 -16 93 -29 23 -13 53 -29 68 -37
60 -33 160 -24 215 20 21 17 26 29 26 65 0 51 -21 98 -50 114 -26 14 -65 -6
-125 -64 -34 -32 -44 -48 -39 -62 7 -19 7 -19 -14 0 -12 11 -22 22 -22 26 0 4
25 38 55 75 55 67 64 88 44 100 -24 15 -60 -9 -115 -79 -57 -73 -58 -74 -98
-69 -58 7 -102 22 -117 39 -11 14 -20 47 -36 142 -8 48 13 80 81 124 55 35 87
48 159 63 21 4 27 11 27 30 0 24 -7 28 -64 37 -15 2 2 24 76 100 53 53 110
117 127 142 18 25 34 46 36 46 2 0 -2 -19 -10 -41z m2120 -59 c0 -58 -2 -65
-20 -65 -14 0 -28 15 -45 48 l-25 48 24 20 c13 11 34 19 45 17 19 -3 21 -10
21 -68z m1379 -130 c8 -70 44 -181 82 -250 15 -28 25 -52 23 -54 -2 -2 -32
-18 -66 -35 -34 -17 -64 -35 -68 -41 -3 -5 -11 -10 -17 -10 -8 0 -9 49 -5 163
5 160 22 287 37 287 4 0 10 -27 14 -60z m-1482 -16 c49 -25 132 -30 177 -9 36
16 41 16 70 0 58 -29 113 -88 184 -195 57 -87 157 -273 157 -293 0 -8 -170 50
-194 67 -12 8 -61 51 -111 96 -114 103 -189 141 -289 148 -57 3 -90 0 -143
-16 -65 -20 -88 -34 -177 -105 -23 -19 -70 -38 -143 -58 -114 -30 -163 -36
-163 -18 0 22 62 158 88 193 54 71 168 142 302 187 71 23 199 25 242 3z m116
-289 c55 -30 139 -101 130 -110 -3 -3 -50 7 -105 24 -130 38 -243 55 -321 47
-78 -8 -75 4 12 46 56 27 68 29 146 26 71 -3 94 -9 138 -33z m-2650 -22 c-2
-22 -9 -29 -30 -31 -32 -4 -36 12 -11 40 25 27 45 23 41 -9z m4188 -118 l37
-55 -37 -80 c-21 -43 -41 -92 -45 -107 -10 -38 -32 -40 -71 -6 -68 57 -103
194 -62 241 22 27 91 62 119 62 16 0 33 -15 59 -55z m-1536 -15 c58 -17 146
-40 197 -51 50 -10 106 -24 125 -32 l33 -14 -65 -6 c-36 -4 -167 -9 -291 -13
l-226 -7 -162 57 c-89 31 -173 56 -187 56 -32 0 -31 18 1 26 70 17 145 22 300
20 159 -3 177 -5 275 -36z m-2129 -79 c-12 -22 -57 -39 -69 -26 -4 4 9 20 28
36 37 31 60 26 41 -10z m3763 -97 c10 -27 -13 -132 -49 -222 -35 -86 -99 -207
-115 -217 -5 -3 0 27 11 67 31 114 70 228 80 234 5 3 9 23 9 44 0 37 33 110
50 110 4 0 11 -7 14 -16z m-208 -144 c15 -6 24 -18 24 -31 0 -37 -61 -223 -79
-241 -15 -16 -18 -17 -39 -2 -24 17 -26 38 -16 143 5 44 11 61 22 61 15 0 14
38 -4 115 l-7 30 37 -33 c21 -18 49 -37 62 -42z m-72 -369 c7 -11 -22 -23 -35
-15 -5 3 -7 10 -4 15 8 12 32 12 39 0z m-29 -1584 c180 -149 198 -200 199
-572 1 -191 -2 -227 -18 -275 -40 -116 -109 -232 -203 -341 -51 -60 -138 -139
-153 -139 -5 0 -4 15 1 33 5 17 18 136 29 262 21 242 33 338 56 445 7 36 14
82 14 102 0 49 -55 238 -90 308 -15 30 -32 71 -38 90 -10 29 -42 233 -42 262
0 9 160 -105 245 -175z m-3230 49 l40 -12 3 -192 c1 -106 0 -192 -4 -192 -3 0
-16 12 -28 27 -11 16 -47 59 -78 96 -54 65 -88 132 -101 205 -6 29 -2 38 23
63 32 32 47 33 145 5z m-226 -146 c21 -71 44 -110 121 -200 64 -75 180 -238
180 -253 0 -21 156 -254 256 -383 151 -194 522 -592 605 -650 22 -15 39 -31
39 -35 0 -16 -155 -9 -277 11 -196 33 -429 123 -548 212 -33 24 -112 100 -175
169 -63 68 -163 171 -221 229 -171 170 -259 293 -314 440 -47 127 -52 175 -29
241 18 52 80 127 92 114 4 -4 9 -60 12 -125 6 -131 15 -153 80 -197 48 -33 93
-44 198 -50 137 -8 154 14 73 100 -67 72 -97 123 -131 226 -36 106 -38 149 -9
185 25 32 31 27 48 -34z m-152 -92 c6 -7 25 -50 43 -96 18 -46 50 -112 72
-147 21 -35 38 -66 38 -68 0 -9 -82 14 -121 33 -21 11 -43 29 -49 39 -12 24
-14 251 -1 251 5 0 13 -6 18 -12z m4455 -397 c20 -5 70 -31 111 -58 40 -27
116 -66 169 -86 52 -21 104 -48 116 -60 28 -29 46 -82 35 -101 -10 -19 -222
-216 -288 -269 -27 -22 -73 -54 -101 -72 -42 -27 -204 -155 -340 -268 -19 -16
-34 -25 -34 -19 0 5 37 70 81 143 128 210 154 299 169 564 5 88 9 177 10 198
0 41 6 43 72 28z"/>
<path d="M4300 7414 c-14 -2 -50 -10 -80 -16 -54 -12 -52 -13 100 -18 85 -4
169 -3 185 0 l30 7 -40 11 c-47 13 -159 22 -195 16z"/>
<path d="M5305 7110 c3 -5 11 -10 16 -10 6 0 7 5 4 10 -3 6 -11 10 -16 10 -6
0 -7 -4 -4 -10z"/>
<path d="M3848 6374 c-138 -25 -258 -69 -315 -117 -29 -23 -91 -62 -138 -86
-106 -53 -199 -121 -225 -164 -21 -33 -86 -225 -114 -333 -9 -34 -25 -114 -36
-178 -11 -64 -22 -127 -25 -139 -8 -31 80 -127 180 -196 92 -64 119 -75 221
-91 95 -14 127 -8 122 23 -3 19 -16 25 -112 44 -87 18 -121 30 -164 59 -63 42
-142 112 -142 127 0 31 203 267 230 267 5 0 35 -7 67 -16 91 -25 408 -30 552
-10 73 11 122 22 133 33 35 31 18 115 -37 188 -66 86 -179 125 -362 125 -141
-1 -173 -14 -235 -102 -25 -35 -81 -95 -124 -133 -44 -38 -111 -100 -151 -139
-40 -38 -75 -67 -78 -64 -8 8 21 145 61 283 19 66 39 137 45 158 15 54 74 112
134 130 56 16 110 11 228 -25 62 -19 82 -20 250 -13 100 4 251 9 336 11 l155
3 30 31 c30 29 31 34 31 116 l0 85 -46 44 c-52 49 -106 69 -229 85 -98 12
-148 11 -242 -6z m-273 -723 l8 -34 -49 7 c-75 11 -94 17 -94 30 0 16 66 125
93 154 l22 24 6 -74 c3 -40 9 -88 14 -107z m240 137 c26 -12 41 -47 32 -73 -8
-18 -73 -51 -120 -60 -32 -6 -40 -3 -67 23 -41 41 -40 76 3 102 36 23 111 27
152 8z m152 -20 c36 -38 66 -95 58 -108 -5 -9 -26 -14 -104 -26 l-45 -6 28 33
c25 30 27 37 21 86 -3 29 -2 53 2 53 5 0 23 -15 40 -32z"/>
<path d="M4343 5099 c-59 -14 -83 -47 -83 -114 0 -60 33 -177 55 -195 20 -17
66 -4 114 30 61 45 74 78 69 177 -2 46 -9 87 -14 92 -15 15 -96 20 -141 10z
m81 -75 c9 -8 16 -28 16 -44 0 -29 -57 -124 -75 -124 -10 -1 -43 101 -44 136
-1 18 42 47 71 48 9 0 24 -7 32 -16z"/>
<path d="M4812 5055 c-23 -7 -54 -21 -68 -30 -24 -16 -26 -21 -22 -74 4 -51
10 -65 53 -120 53 -68 70 -72 125 -32 39 28 50 59 50 142 0 121 -32 147 -138
114z m70 -105 c-2 -25 -9 -57 -15 -73 l-12 -28 -38 49 c-42 56 -41 77 7 91 53
16 61 11 58 -39z"/>
<path d="M2400 3454 c0 -39 52 -84 97 -84 12 0 3 14 -32 50 -52 53 -65 60 -65
34z"/>
<path d="M1604 946 c-6 -16 66 -162 101 -205 12 -14 51 -71 87 -126 117 -178
402 -447 608 -573 l55 -34 -40 7 c-137 24 -798 232 -1115 352 l-145 55 -151
-4 c-162 -4 -184 -11 -184 -53 0 -32 29 -37 132 -24 111 15 178 3 357 -61 168
-60 406 -139 658 -219 l191 -61 228 0 c179 0 225 3 216 12 -7 7 -48 33 -92 58
-87 49 -221 142 -314 217 -120 97 -301 307 -424 492 -87 131 -123 177 -140
179 -13 2 -24 -3 -28 -12z"/>
<path d="M1942 34 c-33 -23 -27 -34 17 -34 41 0 59 18 38 39 -15 15 -28 14
-55 -5z"/>
</g>
</svg>
