<?xml version="1.0" standalone="no"?>
<!DOCTYPE svg PUBLIC "-//W3C//DTD SVG 20010904//EN"
 "http://www.w3.org/TR/2001/REC-SVG-20010904/DTD/svg10.dtd">
<svg version="1.0" xmlns="http://www.w3.org/2000/svg"
 width="2002.000000pt" height="2002.000000pt" viewBox="0 0 2002.000000 2002.000000"
 preserveAspectRatio="xMidYMid meet">

<g transform="translate(0.000000,2002.000000) scale(0.100000,-0.100000)"
fill="#000000" stroke="none">
<path d="M9865 19123 c-11 -2 -58 -17 -105 -32 -47 -16 -137 -41 -200 -55
-291 -68 -391 -110 -492 -207 -62 -60 -68 -70 -95 -154 -28 -90 -28 -91 -26
-340 1 -137 7 -290 14 -340 6 -49 10 -103 8 -118 -3 -25 -11 -14 -58 78 -46
91 -68 122 -141 195 -48 48 -108 101 -133 119 -44 30 -54 32 -160 38 -144 7
-218 -6 -338 -60 -159 -72 -201 -100 -289 -196 -79 -86 -140 -166 -140 -184 0
-14 -110 -168 -172 -242 -32 -38 -61 -80 -65 -93 -7 -28 13 -52 43 -52 29 0
29 -1 4 -50 -11 -22 -20 -48 -20 -59 0 -11 -28 -61 -62 -111 -147 -216 -172
-266 -238 -490 -15 -52 -35 -111 -43 -130 -8 -19 -20 -68 -26 -109 -6 -40 -21
-105 -32 -145 -29 -104 -36 -244 -15 -333 27 -121 22 -226 -21 -382 -31 -114
-37 -153 -37 -241 -1 -98 1 -110 31 -172 17 -37 49 -91 71 -120 54 -71 62 -94
51 -153 -12 -65 -42 -125 -101 -203 -94 -124 -114 -186 -99 -306 22 -181 69
-246 184 -254 113 -7 149 -40 201 -184 21 -57 66 -198 72 -223 14 -61 123
-267 174 -328 69 -83 447 -419 522 -464 171 -103 362 -66 375 74 11 109 -37
189 -225 378 -158 160 -211 237 -317 466 -46 99 -98 202 -114 230 -17 27 -31
53 -31 57 0 5 11 19 24 31 14 14 22 30 19 40 -4 14 -3 14 6 1 6 -8 11 -24 11
-34 0 -22 35 -136 55 -181 8 -16 17 -45 20 -62 4 -21 20 -44 43 -63 47 -38 57
-38 37 1 -20 39 -15 46 12 16 38 -40 68 -97 123 -229 31 -73 34 -78 69 -84 20
-3 49 -10 65 -15 44 -14 113 -11 146 6 30 16 30 16 30 -14 0 -17 6 -50 14 -73
7 -24 19 -65 26 -93 12 -51 51 -177 76 -250 13 -40 38 -166 54 -280 4 -33 11
-248 15 -477 6 -361 5 -418 -7 -418 -8 0 -37 7 -64 15 -27 8 -71 15 -97 15
-43 0 -53 -5 -95 -43 -26 -24 -76 -61 -111 -83 -35 -21 -80 -57 -99 -80 -24
-30 -45 -44 -71 -49 -19 -4 -48 -13 -63 -21 -38 -20 -98 -73 -98 -88 0 -6 -9
-28 -20 -49 -11 -20 -20 -45 -20 -56 0 -17 -6 -18 -62 -14 -49 4 -75 0 -116
-16 -29 -12 -75 -21 -103 -21 -59 0 -113 -20 -128 -48 -6 -11 -61 -46 -123
-77 -67 -33 -133 -76 -163 -103 -28 -26 -72 -61 -97 -79 -30 -21 -56 -49 -72
-80 -29 -58 -74 -101 -141 -137 -27 -15 -90 -62 -140 -106 -49 -44 -95 -80
-101 -80 -6 0 -29 -16 -52 -36 -29 -24 -46 -49 -56 -82 -8 -26 -21 -60 -30
-77 -9 -16 -16 -42 -16 -57 0 -36 -23 -51 -158 -100 -155 -57 -184 -65 -312
-83 -63 -9 -140 -23 -170 -31 -190 -53 -549 -276 -520 -324 13 -21 74 0 250
85 221 106 281 127 460 160 151 28 231 57 438 163 l94 47 -6 43 c-4 32 -1 53
14 82 11 22 20 50 20 63 0 27 26 58 78 91 20 13 73 56 117 95 44 39 105 84
135 100 66 35 114 84 149 148 14 26 41 57 60 68 18 11 61 45 95 75 41 38 97
72 174 109 82 39 116 61 123 78 8 21 15 23 74 23 41 0 84 7 117 20 93 35 168
23 168 -27 0 -14 8 -40 19 -57 10 -17 24 -52 31 -78 7 -26 19 -53 26 -59 8 -6
14 -17 14 -24 0 -23 152 -237 224 -313 17 -19 43 -40 58 -48 16 -8 59 -54 97
-102 38 -48 82 -99 98 -113 15 -14 55 -55 89 -90 33 -35 77 -77 98 -94 49 -38
158 -105 172 -105 5 0 32 -11 60 -24 27 -13 65 -27 84 -31 19 -4 47 -14 62
-21 55 -28 223 -64 351 -75 109 -9 143 -8 195 4 l63 15 60 -47 c130 -99 172
-119 384 -181 141 -41 181 -56 230 -85 34 -21 37 -25 20 -31 -11 -4 -39 -15
-63 -25 -24 -10 -67 -21 -95 -25 -29 -3 -74 -12 -101 -20 -66 -19 -309 -18
-446 1 -58 8 -142 20 -186 25 -45 5 -110 14 -145 20 -35 6 -104 15 -154 20
-49 6 -108 14 -130 19 -216 50 -309 81 -412 136 -26 14 -53 25 -60 25 -7 0
-37 10 -68 22 -40 17 -55 28 -55 43 -1 21 -38 48 -143 104 -33 17 -100 61
-150 98 -49 38 -104 78 -121 89 -63 44 -322 319 -366 390 -25 40 -80 124 -123
189 -64 97 -81 116 -100 113 -12 -2 -23 -11 -25 -20 -3 -17 98 -201 117 -213
6 -3 31 -40 56 -82 26 -42 63 -96 83 -120 70 -82 275 -288 317 -318 24 -16 78
-57 121 -90 44 -32 99 -70 124 -83 58 -31 60 -33 19 -26 -81 15 -524 145 -594
174 -11 5 -40 13 -65 19 -25 5 -103 30 -175 56 -71 25 -150 53 -175 61 -25 9
-94 35 -155 58 l-110 41 -156 0 c-167 0 -189 -6 -189 -50 0 -30 25 -36 113
-23 124 18 205 6 357 -52 74 -29 155 -58 180 -65 25 -7 83 -27 130 -45 47 -18
114 -40 150 -50 108 -30 191 -56 270 -85 41 -14 109 -35 150 -46 41 -10 107
-28 145 -39 39 -11 104 -27 145 -35 79 -16 253 -77 355 -125 87 -41 169 -69
260 -90 44 -10 94 -23 111 -28 17 -5 68 -13 115 -17 46 -3 100 -10 119 -15 19
-5 94 -16 165 -25 72 -8 180 -22 240 -30 149 -20 406 -20 471 0 83 25 90 22
104 -37 12 -49 26 -88 67 -176 9 -18 30 -44 47 -57 l32 -24 -8 -98 c-8 -112
-24 -274 -38 -383 -5 -41 -14 -469 -20 -950 -9 -857 -17 -1054 -42 -1175 -10
-44 -12 -144 -9 -365 4 -387 -15 -1019 -34 -1120 -8 -41 -17 -100 -20 -130 -4
-30 -16 -104 -26 -163 -16 -88 -19 -134 -14 -240 9 -224 9 -314 -3 -557 -13
-269 -25 -376 -51 -475 -70 -261 -86 -420 -75 -740 5 -143 9 -406 10 -585 2
-405 0 -375 19 -360 8 7 15 20 15 29 0 9 4 21 9 26 10 12 28 105 38 200 10 96
10 448 -1 695 -11 259 8 469 64 715 32 139 49 372 51 690 1 165 -1 337 -5 383
-8 84 -6 109 54 477 26 165 45 758 36 1130 -7 241 -5 293 9 361 29 141 35 305
45 1199 5 484 14 918 20 965 28 237 41 390 36 436 -6 51 -5 52 27 64 54 20 62
26 65 52 4 36 -19 41 -84 16 -47 -18 -57 -19 -68 -7 -26 27 -76 157 -76 197 0
39 2 41 48 58 26 9 57 26 68 36 l22 19 30 -63 c16 -35 46 -80 66 -101 32 -34
40 -37 89 -37 40 0 63 6 88 23 94 63 137 85 150 76 8 -5 33 -9 57 -9 l42 0 0
-79 c0 -102 -8 -111 -88 -104 -48 5 -60 3 -65 -11 -12 -32 4 -44 66 -53 l62
-8 3 -80 c3 -77 -22 -273 -39 -306 -13 -26 -47 -245 -59 -379 -6 -69 -18 -165
-27 -215 -18 -104 -25 -486 -10 -550 6 -22 14 -346 20 -720 14 -1021 14 -1244
0 -1285 -46 -127 -55 -208 -63 -555 -4 -187 -12 -362 -18 -390 -58 -271 -67
-363 -52 -565 10 -125 11 -247 5 -434 -5 -144 -6 -292 -4 -331 8 -136 3 -482
-8 -610 -13 -141 -22 -699 -12 -710 10 -9 49 81 70 163 16 63 19 111 19 306 0
127 4 260 10 296 12 84 13 437 0 515 -6 36 -6 127 -2 225 4 91 3 264 -2 385
-13 290 -13 433 2 530 7 44 16 108 21 142 5 33 12 67 17 74 4 7 11 171 15 363
3 196 11 367 17 386 56 185 57 196 55 540 -1 179 -2 611 -2 960 -1 509 -4 648
-15 702 -20 93 -11 442 14 588 5 30 14 114 20 185 12 138 43 334 58 376 21 53
43 223 42 321 0 57 4 121 9 143 6 22 11 72 11 111 l0 71 83 6 c156 10 340 70
504 163 40 23 85 45 100 49 15 3 53 22 86 41 32 19 61 34 64 34 8 0 213 89
233 101 8 5 45 25 82 44 92 48 203 124 283 195 37 33 87 74 112 92 24 18 76
59 115 91 39 32 85 65 102 74 43 22 98 66 191 153 44 41 98 89 120 106 l40 31
60 -13 c60 -14 197 -38 310 -54 65 -10 104 -18 235 -50 47 -11 110 -26 140
-32 30 -6 78 -19 105 -29 101 -35 201 -73 242 -91 23 -10 48 -18 56 -18 37 0
248 -79 390 -146 268 -127 335 -128 165 -1 -144 108 -316 184 -525 232 -37 9
-108 29 -158 45 -138 46 -213 67 -300 85 -44 10 -114 26 -155 37 -71 18 -124
28 -350 63 -157 24 -154 23 -162 86 -15 119 -49 155 -194 208 -89 33 -146 63
-184 97 -37 34 -110 64 -156 64 -48 0 -60 10 -70 65 -4 22 -13 54 -19 70 -7
17 -16 57 -20 90 -7 58 -8 61 -89 138 -44 43 -125 114 -180 158 -88 72 -104
82 -153 88 -45 7 -61 15 -96 49 -33 32 -54 44 -97 52 -30 6 -75 18 -100 26
-50 15 -225 43 -256 41 -16 -2 -20 7 -25 63 -11 106 -10 355 1 474 6 61 14
156 18 211 6 89 9 100 26 100 14 0 22 -13 32 -55 29 -116 119 -151 235 -92 86
43 276 181 325 235 24 27 57 76 73 110 16 34 40 87 55 117 14 30 51 87 82 125
31 39 74 101 97 140 39 67 111 257 121 320 3 17 10 60 17 98 7 42 9 130 6 234
-6 191 2 232 58 302 48 60 58 101 38 160 -8 25 -21 53 -28 61 -26 31 -74 126
-80 160 -17 99 -11 134 40 222 52 87 57 118 36 196 -10 37 -42 134 -71 216
-49 140 -52 154 -52 245 0 53 0 107 1 121 1 14 -1 42 -5 62 -5 32 -4 37 16 40
13 2 28 11 34 21 9 16 5 24 -26 50 -29 24 -39 42 -43 72 -3 22 -12 90 -20 151
-10 83 -25 140 -56 220 -22 60 -56 154 -74 209 -19 55 -47 138 -63 185 -27 79
-30 99 -35 270 -4 129 -11 202 -23 240 -31 105 -139 296 -194 345 -12 11 -51
61 -86 110 -74 105 -134 168 -423 445 -278 266 -303 292 -348 370 -107 182
-182 223 -513 279 -138 23 -335 48 -447 55 -45 3 -94 10 -108 16 -25 10 -249
12 -290 3z m-656 -300 c-48 -56 -159 -156 -159 -145 0 46 63 116 143 160 23
12 43 22 45 22 2 0 -11 -17 -29 -37z m-566 -654 l62 -61 -46 31 c-130 85 -333
89 -520 10 -98 -42 -100 -28 -3 17 134 62 138 63 297 64 l149 0 61 -61z m-335
-369 c40 -18 92 -64 92 -81 0 -4 -45 8 -100 27 -55 18 -118 34 -140 34 -44 0
-53 15 -17 30 38 15 120 11 165 -10z m3786 -81 c51 -76 129 -249 112 -249 -2
0 -18 29 -37 65 -18 36 -50 87 -70 113 -61 78 -87 116 -94 141 -7 23 -7 23 29
-5 20 -16 47 -45 60 -65z m-3852 -38 l43 -19 -77 -2 c-43 -2 -84 -3 -90 -4
-21 -3 -71 25 -62 34 27 25 122 21 186 -9z m2037 -46 c96 -3 178 -8 183 -11 4
-3 8 -14 8 -24 0 -10 8 -26 17 -36 16 -15 18 -15 39 11 21 27 23 27 75 16 49
-11 192 -56 262 -83 15 -6 27 -18 27 -27 0 -10 10 -28 22 -41 l22 -24 11 27
11 27 114 -66 c148 -86 176 -108 286 -222 63 -65 104 -119 132 -171 48 -89 66
-135 52 -126 -6 3 -10 10 -10 15 0 9 -80 120 -86 120 -3 0 8 -33 36 -105 4
-11 13 -38 20 -59 12 -38 69 -159 110 -236 26 -48 39 -244 20 -300 -15 -44
-21 -48 -41 -23 -27 32 -221 115 -363 153 -194 53 -260 63 -387 58 -126 -5
-148 -16 -187 -89 -20 -38 -23 -55 -20 -126 2 -57 8 -87 18 -98 11 -11 54 -18
150 -25 74 -6 173 -17 220 -25 351 -60 376 -66 446 -100 59 -29 81 -47 127
-104 52 -65 56 -75 66 -146 14 -99 14 -172 -1 -267 -12 -82 -22 -97 -31 -49
-3 15 -26 57 -51 92 -25 35 -57 81 -72 102 -20 31 -30 38 -48 33 -21 -5 -28 4
-75 97 -61 123 -81 148 -145 181 -46 24 -58 26 -188 26 -116 0 -146 -3 -181
-19 -53 -25 -122 -91 -131 -126 -9 -35 10 -93 32 -99 9 -3 37 -10 62 -16 25
-7 52 -17 60 -24 18 -15 127 -51 185 -61 22 -4 60 -15 85 -25 25 -10 85 -30
134 -45 81 -25 92 -27 115 -14 14 8 28 25 31 38 5 21 11 15 62 -53 31 -41 59
-90 63 -108 4 -18 16 -71 26 -117 11 -46 17 -86 14 -90 -12 -11 -167 -2 -345
19 -96 12 -206 25 -245 30 -75 9 -108 0 -103 -28 2 -10 17 -20 38 -24 60 -13
347 -47 519 -63 212 -20 210 -21 226 110 3 28 10 79 17 115 l11 65 16 -45 c9
-25 24 -59 34 -77 9 -18 17 -38 17 -45 0 -7 7 -26 16 -43 11 -21 13 -41 8 -70
-4 -22 -8 -101 -8 -175 -1 -90 -6 -147 -15 -171 l-14 -37 -93 -4 c-84 -3 -100
-7 -177 -46 -67 -33 -98 -56 -141 -105 -95 -105 -177 -282 -202 -437 -9 -52
-26 -138 -39 -190 -13 -52 -33 -142 -45 -200 -32 -149 -65 -196 -175 -246 -49
-23 -78 -28 -161 -32 l-102 -5 -26 84 c-40 128 -63 266 -48 290 18 28 15 45
-10 61 -12 8 -19 21 -16 29 5 12 43 17 172 27 91 6 175 16 185 22 11 5 40 10
66 10 31 0 47 5 51 15 4 8 12 15 20 15 7 0 18 9 24 20 9 17 5 31 -23 78 -18
31 -48 89 -66 127 -32 65 -72 130 -156 249 -39 56 -115 129 -159 152 -17 10
-42 14 -60 11 l-31 -5 -2 69 c-2 66 -2 69 17 59 40 -22 162 -58 176 -53 8 3
17 17 20 32 12 56 29 88 70 132 49 53 59 89 57 196 -1 93 -46 211 -104 278
-29 34 -81 128 -101 185 -15 42 -22 95 -27 225 -7 168 -7 171 -39 227 -18 30
-39 61 -48 69 -8 7 -22 26 -30 41 -19 38 -58 36 -62 -3 -2 -18 12 -45 50 -94
l53 -68 6 -181 c7 -171 9 -185 37 -252 16 -38 50 -99 75 -135 96 -135 133
-235 124 -335 -6 -60 -11 -71 -50 -118 -24 -28 -52 -66 -61 -84 -19 -36 -32
-36 -116 1 -56 25 -152 26 -235 3 -91 -25 -249 -32 -278 -13 -13 8 -42 54 -65
101 -74 151 -63 236 38 305 92 63 156 163 218 341 52 150 63 221 52 340 -5 58
-13 116 -17 130 -16 49 -54 110 -78 126 -48 32 -86 -12 -43 -49 94 -80 104
-299 25 -517 -63 -175 -114 -258 -198 -321 -84 -62 -103 -99 -107 -199 -3 -83
-3 -87 41 -175 46 -94 95 -149 143 -161 26 -7 169 2 212 13 20 5 22 2 22 -41
l0 -46 -48 0 c-62 0 -167 -28 -262 -70 -131 -57 -208 -118 -267 -209 -41 -64
-96 -207 -88 -231 10 -32 61 -70 105 -79 151 -31 205 -45 287 -74 72 -25 93
-36 93 -50 0 -11 -9 -21 -20 -24 -21 -6 -35 -36 -25 -53 11 -17 -24 -148 -54
-208 -33 -64 -75 -107 -142 -146 -62 -35 -82 -33 -118 12 -120 149 -125 156
-149 242 -23 78 -25 103 -26 300 l-1 215 -47 95 c-98 196 -253 380 -369 437
-60 29 -226 83 -257 83 -56 0 -360 188 -354 219 1 9 5 39 7 66 4 50 57 312 74
370 5 17 12 57 16 89 4 33 22 93 40 135 60 137 76 197 75 280 -1 49 6 107 21
164 19 76 20 92 9 113 -12 21 -11 34 7 92 42 133 53 198 56 322 2 115 3 125
20 122 38 -7 66 49 32 62 -22 8 0 48 23 44 9 -1 27 4 40 11 22 11 22 14 8 30
-14 15 -12 20 28 59 24 23 50 42 59 42 8 0 25 16 37 35 12 19 26 35 30 35 5 0
26 11 46 25 20 14 48 25 61 25 13 0 22 4 19 9 -3 5 1 14 9 21 11 10 20 8 41
-9 19 -15 34 -19 57 -14 44 8 167 65 197 92 25 21 24 21 -41 -3 -37 -13 -85
-36 -109 -51 -23 -14 -43 -25 -45 -23 -2 2 -6 14 -10 28 -6 25 0 29 117 87
211 105 308 144 413 167 11 2 54 2 95 0 41 -2 153 -6 249 -9z m-1114 -205 c16
-17 16 -20 3 -15 -9 4 -19 13 -22 21 -7 19 -2 18 19 -6z m-56 -90 c11 -6 8
-12 -13 -25 -25 -16 -29 -17 -43 -2 -23 22 -9 50 19 41 13 -3 29 -10 37 -14z
m-739 -51 c25 -5 61 -17 80 -25 107 -48 129 -60 130 -65 0 -3 -29 -9 -64 -13
-36 -3 -84 -13 -108 -22 -48 -17 -113 -13 -234 12 -59 13 -73 20 -83 41 -10
22 -9 25 9 30 11 3 20 9 20 14 0 5 9 9 20 9 11 0 20 4 20 8 0 5 16 9 36 10 20
1 39 4 42 7 9 8 84 5 132 -6z m3089 -23 c9 -11 8 -18 -5 -30 -15 -16 -18 -16
-40 5 -13 12 -24 26 -24 31 0 14 57 9 69 -6z m-2569 -155 c-9 -18 -14 -20 -33
-9 -22 11 -22 12 8 24 36 15 40 12 25 -15z m-150 -42 c70 -25 103 -50 95 -71
-6 -14 -14 -13 -68 13 -34 16 -67 29 -74 29 -6 0 -13 4 -15 9 -1 4 -21 18 -43
29 l-40 21 45 -5 c25 -3 70 -15 100 -25z m54 -149 c24 -9 26 -14 26 -70 0 -57
-1 -60 -19 -48 -12 7 -23 29 -27 53 -3 22 -10 48 -16 58 -10 20 -1 22 36 7z
m14 -229 c2 -13 -2 -21 -10 -21 -19 0 -38 21 -38 42 0 26 44 7 48 -21z m-40
-77 c25 -7 25 -19 2 -80 -9 -22 -13 -24 -26 -13 -9 7 -29 12 -45 11 -34 -3
-35 5 -11 52 17 36 33 42 80 30z m2982 -38 c36 -54 37 -56 6 -56 -14 0 -28 -5
-31 -10 -4 -6 -11 -8 -16 -5 -12 8 -12 115 1 115 5 0 23 -20 40 -44z m-3010
-124 c0 -5 -6 -16 -13 -26 -13 -18 -14 -18 -21 -1 -4 11 -1 22 6 27 17 10 28
10 28 0z m3015 -90 c15 -26 36 -56 45 -67 10 -11 30 -49 45 -85 15 -36 29 -71
32 -79 5 -10 2 -12 -8 -6 -32 20 -99 3 -99 -26 0 -14 -7 -19 -30 -19 l-30 0 0
171 c0 99 4 168 9 165 5 -3 21 -27 36 -54z m116 -5 c11 -21 15 -36 9 -32 -12
7 -60 80 -60 91 0 15 33 -23 51 -59z m-27 -313 c30 -29 14 -27 -34 6 -13 8
-13 10 2 10 9 0 24 -7 32 -16z m-43 -81 c95 -101 117 -155 125 -301 5 -103 4
-106 -11 -73 -31 68 -82 119 -128 128 -42 9 -42 9 -48 62 -4 29 -10 93 -14
142 -7 83 -6 89 12 89 10 0 39 -21 64 -47z m-900 -94 l-6 -66 -52 15 c-49 13
-52 16 -41 36 14 26 97 92 104 83 1 -1 -1 -32 -5 -68z m194 60 c60 -16 85 -44
85 -96 0 -72 -44 -86 -160 -51 -44 14 -50 22 -50 77 0 75 35 95 125 70z m239
-172 c27 -54 46 -101 43 -104 -8 -7 -92 13 -140 34 -33 14 -36 18 -24 32 31
36 45 86 40 136 l-6 50 20 -25 c10 -14 40 -69 67 -123z m488 -148 c15 -23 30
-63 33 -88 4 -25 11 -59 16 -75 5 -16 9 -56 9 -90 l0 -61 -40 80 c-22 44 -40
89 -40 100 0 11 -9 47 -20 79 -11 33 -20 67 -20 78 0 32 34 20 62 -23z m203
-248 c-10 -61 -15 -47 -14 35 1 71 2 75 10 39 5 -21 7 -55 4 -74z m-3764 -468
c-11 -21 -70 -90 -131 -153 -62 -63 -123 -129 -136 -146 -21 -27 -48 -47 -177
-132 -20 -14 -39 -23 -41 -21 -10 10 33 110 64 148 46 59 196 178 232 185 18
4 32 14 35 26 4 15 155 130 171 130 1 0 -6 -17 -17 -37z m105 -28 c-18 -43
-19 -48 -7 -41 5 3 12 -1 15 -10 6 -15 8 -15 25 0 17 16 19 14 28 -51 6 -38
19 -114 29 -170 l18 -102 -22 -21 c-26 -25 -26 -23 -5 -63 9 -18 20 -48 24
-67 4 -19 22 -73 39 -120 38 -105 45 -170 35 -343 -7 -134 -8 -137 -30 -137
-13 0 -48 -10 -79 -21 -56 -22 -57 -22 -117 -4 -67 21 -79 34 -109 114 -32 89
-108 208 -163 256 l-52 45 43 0 c50 0 107 -22 142 -54 37 -35 155 -44 208 -17
57 29 65 43 60 105 -4 43 -10 59 -33 80 -15 14 -30 26 -33 26 -13 0 -113 -73
-131 -96 -16 -21 -18 -30 -10 -46 10 -18 8 -18 -20 3 -36 26 -34 33 39 112 52
57 61 81 34 91 -30 11 -49 -3 -108 -78 l-58 -75 -52 5 c-97 10 -126 32 -126
94 0 17 -7 45 -16 62 -19 36 -13 66 21 107 34 39 145 101 183 101 45 0 62 10
62 35 0 26 -17 35 -63 35 -31 0 -30 2 64 93 53 50 109 112 125 136 16 24 33
50 39 58 17 22 17 -3 1 -42z m2126 -7 c2 -13 1 -44 0 -70 -3 -42 -7 -48 -26
-48 -15 0 -29 12 -44 39 -28 50 -28 79 1 91 41 16 65 12 69 -12z m1379 -218
c10 -68 66 -205 101 -248 6 -7 9 -14 7 -15 -2 -1 -32 -16 -67 -32 -34 -16 -70
-37 -79 -47 -9 -10 -20 -18 -25 -18 -10 0 -1 256 13 350 5 36 14 83 21 105 12
39 12 40 15 10 2 -16 8 -64 14 -105z m-1497 29 c49 -29 147 -37 180 -15 14 9
35 16 46 16 21 0 72 -34 115 -75 52 -50 173 -236 211 -325 8 -19 24 -52 35
-72 21 -39 17 -44 -23 -29 -13 5 -54 19 -93 32 -61 20 -80 33 -153 103 -167
164 -299 208 -463 156 -71 -23 -116 -50 -169 -103 -25 -24 -48 -37 -80 -42
-25 -4 -63 -14 -85 -22 -45 -16 -137 -33 -147 -27 -7 4 16 69 52 150 10 23 33
58 51 79 31 34 139 115 155 115 4 0 28 10 52 21 116 56 257 73 316 38z m110
-284 c55 -26 130 -85 146 -115 10 -18 8 -18 -32 -5 -202 63 -281 76 -406 68
l-67 -4 28 23 c16 13 56 33 90 46 77 28 164 23 241 -13z m-2634 -29 c0 -30 -3
-34 -30 -38 -42 -6 -49 20 -13 49 37 30 43 29 43 -11z m4155 -70 c0 0 15 -22
33 -48 17 -25 32 -54 32 -62 0 -9 -16 -48 -36 -85 -20 -38 -39 -84 -43 -103
-6 -25 -12 -32 -27 -30 -60 10 -126 112 -128 197 0 40 5 59 19 75 29 32 107
70 130 63 11 -3 20 -6 20 -7z m-1560 -48 c39 -11 105 -31 147 -44 43 -13 90
-24 107 -24 16 0 60 -10 97 -21 67 -21 68 -22 39 -31 -16 -5 -151 -12 -300
-15 l-270 -6 -90 33 c-168 61 -229 80 -252 80 -41 0 -33 18 15 31 60 16 241
28 352 22 47 -3 117 -14 155 -25z m-2082 -114 c-21 -15 -59 -18 -68 -5 -3 5
14 23 37 39 l43 30 3 -25 c2 -15 -4 -30 -15 -39z m3775 -95 c4 -35 -24 -157
-39 -173 -5 -6 -9 -16 -9 -22 0 -20 -76 -176 -104 -213 -14 -19 -26 -31 -26
-25 1 19 46 180 57 199 6 11 13 36 17 56 4 21 13 42 21 49 10 8 15 30 15 61 0
27 4 49 9 49 5 0 14 14 20 31 14 39 35 33 39 -12z m-210 -128 c36 -15 36 -20
14 -86 -6 -16 -21 -65 -33 -108 -26 -91 -39 -105 -75 -89 -24 12 -25 13 -22
114 3 92 5 103 21 100 22 -4 23 38 2 98 -20 57 -20 57 23 18 20 -18 52 -40 70
-47z m-3302 -335 c22 -19 55 -63 73 -98 19 -35 57 -95 87 -133 29 -39 68 -109
87 -155 87 -213 124 -275 218 -370 144 -144 519 -348 799 -434 124 -39 357
-76 469 -76 111 1 320 24 348 38 10 6 53 19 94 30 81 20 130 51 219 135 30 29
92 83 137 120 97 80 137 127 227 265 63 95 86 120 86 90 0 -7 1 -186 3 -398 3
-360 5 -390 25 -465 13 -44 27 -122 33 -174 9 -80 17 -107 54 -180 25 -47 49
-109 54 -137 6 -28 17 -70 27 -93 17 -43 16 -77 -6 -181 -27 -130 -35 -206
-59 -540 -8 -105 -10 -115 -38 -180 -35 -80 -157 -203 -229 -230 -80 -31 -371
-310 -462 -444 -38 -56 -65 -82 -140 -133 -138 -94 -170 -87 -231 48 -53 117
-126 163 -376 235 -213 61 -267 89 -445 234 -47 38 -108 85 -136 104 -28 19
-79 67 -115 106 -35 39 -104 115 -154 169 -168 182 -297 335 -359 426 -26 39
-57 84 -69 101 -12 18 -31 47 -42 65 -11 18 -28 46 -38 62 -42 69 -47 102 -47
356 0 146 5 267 11 300 9 42 9 167 1 501 -13 505 -23 583 -102 820 -39 118
-81 276 -80 303 1 7 9 -2 18 -20 9 -17 35 -48 58 -67z m3234 -36 c0 -6 -7 -13
-15 -16 -20 -8 -48 3 -40 16 8 13 55 13 55 0z m-120 -1514 c120 -84 222 -186
250 -248 26 -60 40 -205 40 -414 0 -149 -3 -188 -20 -245 -36 -120 -82 -201
-193 -339 -55 -69 -164 -166 -174 -156 -3 2 1 21 7 43 7 21 15 88 20 148 26
342 33 406 60 535 23 107 23 157 2 217 -11 32 -23 75 -27 96 -3 21 -26 77 -50
125 -40 78 -46 100 -59 207 -8 66 -18 129 -22 140 -7 17 -3 16 27 -7 19 -16
81 -61 139 -102z m60 94 c8 -4 42 -13 75 -20 44 -9 70 -21 95 -44 56 -53 82
-66 126 -66 36 0 52 -8 115 -60 41 -33 113 -97 161 -142 85 -81 87 -83 93
-138 3 -30 12 -68 20 -85 20 -46 25 -93 32 -305 4 -157 2 -208 -10 -260 -9
-36 -21 -90 -28 -120 -16 -73 -47 -143 -101 -227 -25 -37 -61 -98 -81 -135
-20 -36 -53 -90 -72 -119 -19 -30 -35 -58 -35 -64 0 -6 -15 -19 -32 -28 -18
-9 -53 -27 -78 -41 -46 -25 -83 -42 -225 -103 -44 -19 -98 -45 -120 -57 -22
-13 -51 -27 -65 -31 -14 -4 -65 -30 -114 -58 -181 -102 -336 -148 -529 -154
l-139 -5 12 21 c28 52 67 100 177 218 125 133 223 217 320 271 32 18 81 54
108 79 28 26 57 47 65 48 8 0 33 13 55 28 22 15 60 41 84 56 68 44 146 126
216 226 91 130 130 207 161 315 26 93 27 97 21 315 -6 234 -15 291 -60 385
-33 68 -148 188 -237 246 -36 24 -74 50 -85 59 -19 14 -18 15 20 9 22 -4 47
-10 55 -14z m-3229 -107 l67 -17 7 -81 c6 -72 -2 -305 -10 -313 -2 -2 -22 21
-44 52 -23 30 -58 73 -80 93 -38 39 -81 132 -81 178 0 13 -5 27 -11 31 -14 8
49 74 70 74 9 0 46 -7 82 -17z m-175 -221 c14 -31 47 -79 73 -107 64 -67 147
-175 155 -201 4 -12 15 -29 26 -39 11 -10 20 -26 20 -36 0 -10 5 -21 10 -24 6
-4 19 -23 30 -43 71 -129 229 -344 359 -488 25 -28 93 -104 151 -168 142 -159
246 -263 311 -310 l53 -40 -29 -8 c-70 -19 -398 32 -483 76 -15 7 -43 17 -62
21 -19 4 -39 11 -45 15 -5 4 -45 22 -89 40 -124 52 -267 180 -439 394 -27 32
-77 81 -112 108 -36 26 -70 58 -76 71 -6 12 -31 45 -54 72 -35 42 -62 79 -107
149 -15 23 -58 123 -58 135 0 6 -8 28 -18 49 -25 49 -29 154 -8 184 9 12 16
30 16 39 0 17 63 79 80 79 6 0 10 -46 10 -109 0 -125 6 -148 53 -195 43 -42
101 -64 207 -75 139 -15 175 19 98 92 -81 78 -123 155 -158 291 -19 73 -20 81
-5 112 9 18 23 38 33 43 14 8 18 4 24 -30 4 -22 19 -66 34 -97z m-131 -127
c21 -55 53 -120 70 -145 52 -75 51 -72 8 -64 -53 9 -104 31 -131 57 -22 20
-23 28 -21 128 1 58 -1 112 -6 119 -11 17 17 33 31 17 6 -7 28 -57 49 -112z
m4478 -323 c73 -55 127 -85 210 -114 101 -35 123 -50 142 -94 24 -58 19 -75
-33 -117 -26 -21 -83 -73 -127 -116 -89 -86 -152 -137 -207 -169 -46 -26 -197
-143 -307 -239 -46 -40 -86 -71 -88 -69 -6 5 61 122 124 220 91 139 131 304
135 560 l2 178 53 -4 c40 -4 64 -13 96 -36z"/>
<path d="M10053 17593 c-27 -7 -61 -14 -78 -15 -16 -1 51 -5 150 -8 217 -6
252 -3 180 18 -64 18 -191 21 -252 5z"/>
<path d="M11110 17306 c0 -2 7 -7 16 -10 8 -3 12 -2 9 4 -6 10 -25 14 -25 6z"/>
<path d="M9667 16565 c-43 -7 -123 -28 -178 -45 -82 -27 -109 -40 -149 -77
-28 -27 -81 -61 -129 -82 -97 -44 -204 -119 -231 -164 -35 -55 -128 -365 -140
-462 -6 -49 -18 -116 -26 -147 -15 -60 -11 -88 12 -88 8 0 14 -4 14 -10 0 -39
218 -204 283 -214 18 -3 64 -11 104 -17 75 -13 103 -5 103 27 0 19 -5 20 -115
39 -85 14 -110 23 -165 58 -36 23 -84 62 -106 87 l-42 44 30 43 c50 73 124
159 172 197 43 36 46 37 73 22 62 -32 391 -48 533 -26 36 6 90 13 120 16 63 7
80 23 80 73 0 81 -88 194 -175 225 -83 29 -125 35 -244 36 -145 0 -173 -13
-242 -118 -32 -49 -65 -84 -96 -105 -26 -17 -94 -78 -150 -135 -68 -68 -103
-97 -103 -85 0 47 33 194 65 290 19 59 35 115 35 124 0 28 28 84 57 116 18 19
51 38 86 49 49 15 62 16 96 4 21 -7 44 -9 51 -5 6 4 26 0 43 -8 18 -8 48 -20
68 -26 51 -16 310 -14 391 3 46 10 104 12 191 9 l124 -6 34 31 c34 30 34 31
34 116 0 83 -1 85 -35 121 -46 48 -74 62 -160 80 -106 22 -224 26 -313 10z
m-293 -607 c-4 -44 -1 -76 10 -105 l15 -43 -30 0 c-26 0 -118 18 -127 26 -9 7
88 162 111 176 23 15 26 7 21 -54z m259 20 c21 -11 39 -52 31 -72 -9 -22 -103
-66 -141 -66 -45 0 -83 38 -83 83 0 29 5 36 43 55 43 22 109 23 150 0z m175
-51 c17 -25 32 -54 32 -65 0 -21 -19 -28 -109 -39 l-45 -5 28 33 c24 29 27 38
21 77 -4 25 -9 51 -12 59 -12 31 52 -14 85 -60z"/>
<path d="M10161 15289 c-72 -14 -96 -46 -92 -122 3 -60 36 -170 57 -188 30
-25 127 26 166 89 18 29 20 45 16 118 -2 46 -9 88 -14 93 -15 14 -86 20 -133
10z m87 -98 c2 -19 1 -44 -2 -57 -7 -25 -62 -94 -76 -94 -4 0 -16 34 -26 76
l-18 77 24 19 c16 13 35 18 59 16 33 -3 36 -6 39 -37z"/>
<path d="M10627 15245 c-26 -7 -59 -21 -73 -30 -24 -16 -26 -21 -22 -75 3 -49
10 -65 39 -98 19 -22 41 -50 50 -63 14 -20 18 -21 51 -10 19 6 46 23 59 37 21
22 24 37 27 112 3 77 1 90 -18 115 -24 30 -41 32 -113 12z m68 -117 c-7 -62
-32 -109 -42 -80 -3 8 -18 29 -34 47 -16 18 -29 39 -29 48 0 26 33 43 88 46
23 1 24 0 17 -61z"/>
<path d="M8210 13651 c0 -44 52 -91 100 -91 16 0 12 7 -22 38 -24 20 -47 43
-51 50 -9 14 -27 16 -27 3z"/>
<path d="M15138 10260 c12 -21 18 -25 20 -14 4 16 -15 44 -29 44 -4 0 0 -13 9
-30z"/>
<path d="M7703 10163 c-32 -43 -82 -106 -113 -140 -87 -98 -197 -224 -241
-277 -43 -52 -159 -221 -159 -232 0 -3 -31 -63 -70 -134 -38 -70 -72 -139 -76
-154 -3 -14 -32 -75 -63 -134 -72 -135 -140 -335 -121 -357 18 -22 47 -18 64
8 8 12 28 65 44 117 16 52 55 146 86 209 31 62 56 119 56 126 0 12 13 38 115
230 69 130 142 233 266 375 59 69 138 159 174 200 36 41 86 105 111 142 38 56
44 71 34 83 -25 30 -49 16 -107 -62z"/>
<path d="M13127 9883 c-4 -3 -7 -17 -7 -30 0 -16 9 -27 33 -37 52 -22 162
-116 223 -191 31 -38 117 -128 190 -200 140 -137 233 -247 260 -305 9 -19 25
-54 35 -76 11 -23 24 -75 30 -115 17 -132 21 -148 40 -165 39 -35 72 10 57 80
-4 23 -12 71 -17 108 -21 153 -98 266 -372 539 -91 91 -180 186 -197 211 -28
40 -156 148 -209 176 -24 13 -56 16 -66 5z"/>
<path d="M15345 9752 c-7 -35 -42 -93 -53 -90 -18 6 -126 -93 -194 -177 -107
-132 -176 -290 -228 -528 -28 -122 -48 -188 -125 -398 -120 -327 -312 -749
-421 -924 -24 -39 -57 -104 -74 -144 -72 -175 -90 -139 -114 229 -3 47 -12
123 -20 170 -35 204 -54 363 -74 647 -8 113 -19 143 -52 143 -34 0 -45 -29
-44 -119 1 -143 35 -512 64 -711 5 -36 14 -154 20 -262 6 -109 14 -219 20
-245 5 -27 11 -88 14 -138 3 -49 12 -117 20 -150 9 -32 16 -70 16 -83 0 -14
11 -79 24 -146 26 -130 48 -281 66 -441 6 -55 20 -143 30 -195 36 -183 40
-216 50 -425 5 -115 12 -232 16 -260 5 -47 3 -52 -33 -92 l-38 -43 -271 -4
c-235 -4 -290 -2 -420 16 -82 11 -199 22 -260 25 -107 5 -112 4 -127 -17 -31
-44 15 -90 91 -90 20 0 114 -17 207 -37 168 -35 173 -36 450 -39 154 -2 296
-4 315 -4 31 0 40 -7 83 -62 26 -34 47 -69 47 -78 0 -8 7 -25 15 -36 8 -12 12
-24 8 -27 -3 -4 2 -9 11 -13 9 -3 16 -12 16 -20 0 -9 12 -14 34 -14 28 0 40 7
60 33 37 48 76 175 76 245 0 104 -41 272 -66 272 -4 0 -20 -12 -37 -26 l-31
-26 -13 49 c-7 26 -16 57 -20 68 -3 11 -5 97 -4 192 2 175 -6 278 -39 483 -10
63 -24 171 -30 240 -7 69 -26 190 -43 270 -16 80 -32 183 -34 230 -5 81 -3 91
36 193 62 162 132 312 190 407 117 190 305 606 426 940 31 85 69 184 85 220
16 36 32 77 35 92 4 14 15 34 25 43 18 16 20 15 38 -22 18 -35 20 -70 26 -400
3 -199 8 -368 10 -375 3 -7 7 -49 10 -93 3 -44 9 -91 12 -105 3 -14 8 -38 11
-55 2 -16 10 -36 16 -44 9 -11 9 -13 0 -8 -9 6 -9 -1 1 -25 7 -18 12 -38 9
-44 -2 -6 2 -16 10 -22 11 -9 13 -5 11 24 -2 19 0 33 4 30 4 -2 8 195 9 437 6
996 8 1102 20 1142 7 22 15 61 18 88 6 46 11 53 78 114 21 20 28 21 60 11 32
-10 40 -9 58 8 30 27 38 53 27 94 -27 107 -97 171 -113 102z"/>
<path d="M4940 9671 c-45 -45 -76 -176 -55 -240 7 -22 52 -51 81 -51 9 0 31
16 50 35 18 19 44 39 57 44 21 8 25 16 23 43 -4 48 -5 48 -21 42 -12 -5 -15 3
-15 42 0 68 -8 90 -36 103 -38 17 -53 14 -84 -18z"/>
<path d="M10572 9584 c-48 -34 -54 -61 -63 -338 -5 -144 -11 -385 -13 -536 -2
-157 -9 -296 -15 -325 -22 -93 -32 -209 -42 -450 -19 -492 -29 -661 -41 -705
-10 -35 -13 -282 -13 -1115 -1 -1142 -4 -1236 -51 -1478 -23 -122 -24 -145
-25 -540 0 -226 -5 -479 -10 -562 -5 -82 -13 -301 -18 -485 -5 -184 -11 -342
-15 -350 -3 -8 -12 -103 -21 -210 -8 -107 -20 -238 -25 -290 -11 -100 -45
-261 -63 -294 -9 -18 -11 -17 -21 14 -13 42 -40 50 -57 18 -7 -13 -14 -74 -17
-138 -4 -112 -43 -334 -75 -425 -14 -41 -38 -59 -90 -70 -42 -9 -74 -46 -92
-109 -18 -61 -13 -147 9 -165 6 -5 36 -11 65 -13 77 -4 80 -12 47 -158 -32
-145 -45 -332 -46 -642 l0 -218 171 0 c158 0 170 1 158 17 -18 21 -18 344 0
523 16 158 65 451 82 481 24 46 52 62 62 37 3 -7 6 -1 6 15 1 15 6 27 11 27 6
0 10 6 10 13 0 6 15 22 33 34 34 23 57 29 57 15 0 -11 84 -9 92 3 4 5 2 13 -5
17 -9 6 -9 8 1 8 7 0 10 5 7 10 -4 6 -11 8 -16 5 -5 -4 -9 -1 -9 4 0 17 -66
13 -80 -4 -16 -19 -25 -19 -43 0 -8 8 -21 16 -28 17 -8 2 -27 25 -42 52 -32
55 -32 56 3 301 10 72 22 159 25 195 4 36 18 124 31 195 14 72 36 261 49 420
14 160 27 299 30 310 3 11 10 166 16 345 5 179 14 386 20 460 5 74 14 347 18
605 7 384 11 483 25 540 34 139 39 304 46 1420 5 815 10 1121 18 1150 13 41
26 270 42 725 6 168 15 292 25 340 16 76 37 639 39 1045 1 159 -1 184 -18 215
-11 19 -26 40 -35 47 -23 17 -82 16 -109 -3z"/>
<path d="M7775 9507 c-139 -117 -351 -352 -415 -462 -13 -22 -44 -65 -70 -95
-54 -63 -98 -130 -186 -280 -33 -58 -80 -136 -104 -175 -106 -171 -151 -285
-180 -451 -6 -33 -19 -86 -30 -117 -11 -31 -20 -64 -20 -74 0 -10 -14 -47 -31
-82 -47 -101 -79 -237 -94 -408 -8 -84 -19 -171 -24 -191 -5 -20 -12 -58 -16
-84 -5 -42 -3 -51 19 -73 31 -31 61 -32 80 -2 20 30 53 238 61 375 6 125 28
232 73 349 30 79 72 250 93 378 16 99 101 295 173 399 11 16 41 70 67 120 53
104 99 173 173 266 29 36 63 83 76 105 61 102 265 329 391 435 52 43 71 72 63
94 -10 27 -46 17 -99 -27z"/>
<path d="M5178 9459 c-9 -6 -8 -9 7 -9 14 0 16 -3 7 -8 -20 -13 0 -51 58 -107
122 -118 250 -347 319 -571 54 -177 98 -295 161 -429 23 -49 72 -166 110 -260
37 -93 102 -246 145 -340 112 -247 148 -359 184 -575 17 -102 37 -214 44 -250
19 -103 14 -881 -7 -952 -8 -29 -16 -75 -17 -103 -3 -53 15 -238 33 -345 5
-36 14 -90 18 -120 4 -30 8 -47 9 -37 0 10 8 20 17 24 13 5 13 7 2 14 -10 7
-9 9 4 9 10 0 15 7 13 18 -1 9 2 22 7 29 5 6 11 40 14 75 8 95 12 120 21 127
5 3 26 19 46 35 40 31 46 31 197 6 133 -21 354 -6 519 36 139 35 193 40 214
19 23 -23 21 -39 -14 -120 -17 -38 -34 -94 -37 -124 -5 -41 -13 -58 -32 -72
-14 -10 -128 -50 -254 -89 -126 -38 -237 -77 -247 -86 -11 -10 -19 -26 -19
-37 0 -28 41 -97 58 -97 18 0 187 58 379 130 238 90 416 213 513 355 33 49
211 399 240 472 20 51 25 108 14 151 -5 16 -14 22 -35 22 -30 0 -33 -6 -42
-80 -8 -64 -55 -159 -201 -408 -87 -148 -201 -260 -234 -228 -3 4 6 42 20 84
15 42 30 94 34 114 9 51 -11 105 -46 123 -42 22 -221 20 -313 -2 -104 -26
-506 -26 -588 -1 -69 22 -104 48 -129 98 -19 37 -19 48 -9 276 17 372 9 611
-30 829 -73 414 -70 405 -244 790 -30 66 -89 207 -131 313 -43 107 -104 250
-136 318 -35 72 -81 193 -111 291 -69 227 -135 363 -231 478 -42 50 -100 110
-129 135 -60 50 -150 92 -171 79z"/>
<path d="M15543 9058 c-6 -7 -18 -46 -28 -85 -19 -73 -29 -88 -39 -55 -3 9 -3
-32 0 -91 3 -59 12 -125 20 -145 8 -20 12 -27 10 -14 -2 12 0 20 5 16 5 -3 9
-14 9 -25 0 -10 5 -19 10 -19 6 0 10 -6 9 -12 -2 -7 3 -33 10 -58 7 -25 19
-81 27 -125 17 -100 18 -104 48 -195 64 -191 87 -254 97 -266 27 -33 32 -12
26 119 -8 210 -41 462 -91 707 -8 41 -21 106 -28 144 -11 57 -18 73 -44 93
-24 18 -33 21 -41 11z m-36 -290 c-3 -8 -6 -5 -6 6 -1 11 2 17 5 13 3 -3 4
-12 1 -19z"/>
<path d="M7660 8715 c-5 -13 -22 -43 -37 -67 -102 -159 -210 -364 -255 -483
-16 -44 -38 -125 -48 -180 -10 -55 -28 -143 -40 -195 -11 -52 -27 -133 -35
-180 -13 -81 -79 -292 -109 -348 -8 -15 -30 -58 -49 -97 -19 -38 -49 -97 -65
-130 -17 -33 -88 -177 -158 -320 -138 -283 -181 -347 -280 -420 -88 -65 -98
-78 -90 -118 6 -34 27 -59 58 -70 24 -8 96 43 170 121 75 80 130 160 158 233
12 29 33 78 47 109 14 30 34 76 44 102 10 26 36 82 57 125 22 43 43 89 47 103
4 14 33 81 65 150 135 292 152 348 221 740 22 129 52 271 65 315 27 85 117
274 175 365 19 30 57 92 83 138 43 73 47 86 38 108 -15 32 -50 32 -62 -1z"/>
<path d="M9730 8472 c-15 -13 -25 -39 -35 -102 -8 -47 -26 -125 -39 -175 -14
-49 -26 -107 -26 -129 0 -93 -41 -368 -77 -521 -9 -38 -30 -106 -46 -150 -16
-44 -37 -127 -47 -185 -11 -58 -24 -121 -30 -140 -6 -19 -17 -75 -25 -125 -18
-116 -52 -270 -63 -292 -6 -10 -17 -45 -25 -78 -9 -33 -18 -67 -22 -76 -9 -25
22 -51 45 -39 26 14 93 224 119 375 12 66 30 158 41 205 10 47 26 123 34 170
8 47 24 112 36 145 39 108 61 189 71 255 5 36 16 97 23 135 16 76 36 249 36
306 0 19 13 82 29 140 16 57 32 129 36 159 4 30 11 65 16 77 17 46 -15 74 -51
45z"/>
<path d="M11783 7898 c-12 -20 -42 -111 -43 -130 0 -10 -11 -52 -25 -94 -14
-42 -25 -86 -25 -98 0 -11 -9 -50 -20 -86 -12 -36 -31 -103 -44 -150 -13 -47
-29 -98 -34 -115 -27 -74 -52 -184 -52 -221 0 -22 -7 -63 -15 -90 -8 -27 -15
-59 -15 -72 0 -12 -16 -78 -35 -145 -19 -67 -39 -167 -45 -222 -18 -173 -29
-225 -90 -434 -33 -112 -60 -218 -60 -237 0 -101 -103 -349 -206 -495 -19 -28
-42 -70 -50 -93 -8 -22 -26 -57 -40 -78 -32 -46 -31 -101 3 -106 24 -3 29 4
94 138 17 35 55 101 83 145 100 154 168 323 186 456 5 41 30 144 55 229 61
205 95 358 95 430 0 47 17 135 50 265 42 163 61 252 70 325 8 72 26 149 46
196 13 30 46 148 84 299 31 121 59 223 81 293 15 47 17 67 9 82 -12 22 -45 27
-57 8z"/>
<path d="M15122 7208 c-7 -7 -12 -15 -12 -20 0 -4 -9 -31 -20 -61 -19 -50 -22
-53 -56 -53 -38 0 -57 -19 -45 -43 13 -25 23 -143 26 -291 2 -98 -4 -189 -22
-330 -36 -282 -39 -349 -18 -394 37 -77 73 -67 149 41 66 94 81 144 97 318 21
231 -4 713 -41 802 -12 29 -43 46 -58 31z"/>
<path d="M14542 6819 c-12 -5 -22 -12 -22 -16 1 -113 35 -442 61 -583 10 -58
19 -126 19 -152 0 -27 4 -48 9 -48 6 0 9 -8 7 -17 -1 -10 3 -34 10 -53 l13
-35 1 35 c0 26 3 31 10 20 7 -12 10 -8 11 15 0 17 2 41 5 55 2 14 4 81 5 150
2 106 -1 179 -16 410 0 14 -2 58 -3 98 -2 68 -5 76 -31 101 -31 29 -45 33 -79
20z"/>
<path d="M6194 5146 c-40 -47 -54 -87 -61 -182 -7 -86 14 -135 79 -185 24 -18
51 -42 61 -53 15 -17 20 -18 42 -6 24 13 49 63 38 74 -4 3 -1 6 5 6 7 0 13 -6
13 -12 2 -25 4 -34 18 -71 19 -56 91 -190 109 -204 27 -22 52 -15 74 22 16 28
25 34 42 29 21 -6 172 -153 215 -209 70 -92 554 -580 711 -716 47 -41 168
-155 270 -254 306 -298 401 -385 420 -385 31 0 67 21 80 46 11 20 10 27 -13
58 -15 19 -68 72 -119 118 -51 45 -171 160 -268 254 -96 94 -215 206 -265 250
-237 206 -437 402 -1016 992 -61 61 -117 112 -125 112 -8 0 -14 4 -14 9 0 5
-12 11 -26 13 -15 2 -31 10 -35 18 -22 41 -59 129 -59 141 0 51 -89 176 -125
176 -9 0 -32 -18 -51 -41z"/>
<path d="M14367 4878 c-28 -22 -39 -69 -44 -188 -5 -130 9 -177 59 -194 54
-19 98 73 98 205 0 63 -23 123 -63 167 -24 26 -27 26 -50 10z"/>
<path d="M7006 4761 c-9 -10 -17 -35 -18 -55 -1 -41 3 -46 117 -133 179 -135
493 -228 770 -227 134 0 158 7 274 82 34 23 88 51 118 62 78 29 127 55 225
122 97 64 121 93 116 135 -5 42 -35 40 -97 -7 -77 -58 -174 -110 -263 -142
-43 -15 -121 -50 -173 -78 -93 -49 -98 -50 -181 -50 -95 0 -336 45 -449 83
-127 44 -248 112 -332 189 -47 42 -81 48 -107 19z"/>
<path d="M6252 4638 c-30 -30 14 -308 49 -308 8 0 21 36 39 109 13 50 -40 211
-68 211 -5 0 -13 -5 -20 -12z"/>
<path d="M14325 4385 c-43 -18 -82 -67 -128 -163 -34 -71 -40 -94 -44 -170 -4
-61 0 -105 11 -148 9 -34 16 -80 16 -102 0 -68 37 -169 68 -188 19 -10 42 -45
70 -102 60 -124 196 -299 238 -307 19 -3 22 3 28 42 16 117 2 267 -35 380 -17
51 -30 70 -70 104 -33 27 -62 43 -88 46 -41 6 -51 19 -51 73 0 44 30 142 61
204 33 62 37 102 23 215 -8 64 -18 97 -37 114 -18 17 -28 17 -62 2z"/>
<path d="M6043 3387 c-62 -60 -79 -82 -101 -133 -25 -57 -26 -68 -30 -294 -3
-141 0 -281 8 -350 11 -112 17 -130 73 -238 16 -30 17 -41 7 -77 -9 -32 -9
-48 -1 -64 13 -24 16 -25 40 -12 21 12 57 112 48 136 -4 9 -16 19 -27 22 -18
5 -18 7 -4 47 9 22 20 50 25 61 24 56 52 190 74 365 38 289 41 364 21 434 -25
86 -95 140 -133 103z"/>
<path d="M6613 3053 c-35 -29 -54 -98 -60 -223 -5 -97 -2 -129 16 -200 11 -47
25 -121 31 -165 17 -128 42 -174 107 -196 28 -9 40 -23 73 -89 48 -95 94 -150
125 -150 48 0 79 56 101 182 6 38 -9 156 -28 222 -7 23 -35 63 -70 99 -31 34
-60 72 -62 86 -3 15 -12 69 -21 121 -39 238 -41 244 -93 293 -37 35 -89 44
-119 20z"/>
<path d="M11162 2898 c-7 -7 -12 -27 -12 -46 0 -39 22 -62 155 -167 283 -222
579 -340 883 -352 122 -5 134 -4 147 13 21 28 18 62 -7 77 -13 8 -57 20 -98
27 -206 33 -414 92 -520 145 -119 60 -244 136 -319 193 -132 102 -163 122
-190 122 -15 0 -32 -5 -39 -12z"/>
<path d="M6259 2392 c-31 -15 -34 -21 -32 -55 3 -47 31 -107 50 -107 30 0 63
47 63 90 0 75 -27 99 -81 72z"/>
<path d="M14390 2072 c-21 -17 -23 -27 -21 -87 2 -50 9 -80 27 -114 17 -33 24
-40 24 -24 0 16 5 20 19 16 14 -3 22 4 33 34 15 38 14 143 -2 143 -4 0 -19 11
-32 25 -25 25 -26 25 -48 7z"/>
<path d="M10950 1670 c0 -6 -4 -8 -10 -5 -19 12 -10 -32 10 -50 11 -10 20 -23
20 -30 0 -13 171 -180 245 -238 27 -21 50 -46 51 -54 2 -9 14 -32 28 -51 l25
-36 -34 -23 c-34 -23 -34 -25 -22 -56 15 -36 90 -99 155 -128 89 -42 227 -10
220 50 -3 38 -25 59 -93 93 -75 38 -94 54 -88 77 3 12 -4 25 -22 37 -15 11
-34 27 -43 37 -9 9 -22 17 -29 17 -7 0 -18 10 -24 23 -19 36 -110 130 -231
240 -58 53 -158 114 -158 97z"/>
<path d="M7747 1258 c-38 -8 -56 -20 -92 -60 -41 -46 -85 -137 -85 -177 0 -10
7 -24 15 -31 13 -11 24 -9 63 11 36 18 65 23 122 24 56 1 85 7 115 23 47 25
95 67 95 82 0 5 4 10 8 10 5 0 9 16 10 35 1 19 -2 35 -6 35 -5 0 -17 8 -28 18
-43 40 -118 50 -217 30z"/>
<path d="M14309 1177 c-13 -13 -35 -42 -49 -66 -29 -49 -151 -199 -204 -250
-19 -19 -33 -38 -30 -43 3 -4 1 -8 -4 -8 -19 0 -20 -40 -2 -62 14 -18 26 -22
64 -19 27 1 46 -2 46 -8 0 -6 7 -8 17 -4 11 4 28 -7 55 -38 l38 -44 30 35 c64
73 103 232 98 391 -2 81 -7 109 -20 122 -15 15 -18 15 -39 -6z"/>
<path d="M7224 1012 c-21 -14 -64 -87 -64 -109 0 -38 30 -101 58 -119 24 -16
27 -16 57 0 18 10 40 33 49 53 22 45 8 99 -38 148 -34 36 -43 40 -62 27z"/>
<path d="M12626 943 c-4 -5 -11 -9 -14 -9 -32 -7 -52 -20 -63 -41 -44 -82 49
-175 189 -187 48 -5 74 -13 107 -36 50 -34 56 -29 54 48 -1 63 -17 104 -59
149 -34 36 -50 46 -113 72 -32 13 -90 15 -101 4z"/>
</g>
</svg>
